<svg width="525" height="525" viewBox="0 0 525 525" fill="none" xmlns="http://www.w3.org/2000/svg">
<circle cx="262.5" cy="262.5" r="262.5" fill="#668E72"/>
<path d="M157.295 193.545H174.909V297.523C174.909 306.803 173.205 314.687 169.795 321.173C166.386 327.66 161.58 332.584 155.378 335.946C149.175 339.308 141.86 340.989 133.432 340.989C125.477 340.989 118.399 339.545 112.196 336.656C105.993 333.721 101.116 329.554 97.5653 324.156C94.0142 318.759 92.2386 312.343 92.2386 304.909H109.568C109.568 309.028 110.586 312.627 112.622 315.705C114.705 318.735 117.546 321.102 121.145 322.807C124.743 324.511 128.839 325.364 133.432 325.364C138.498 325.364 142.807 324.298 146.358 322.168C149.909 320.037 152.608 316.912 154.455 312.793C156.348 308.626 157.295 303.536 157.295 297.523V193.545ZM210.207 339V193.545H297.991V209.17H227.821V258.318H293.446V273.943H227.821V323.375H299.128V339H210.207ZM321.784 209.17V193.545H430.875V209.17H385.136V339H367.523V209.17H321.784Z" fill="white"/>
</svg>
